<?xml version="1.0"?>
<svg xmlns="http://www.w3.org/2000/svg" viewBox="-265.2395833333333 209.5 160 160">
  <rect x="-265.2395833333333" y="209.5" width="160" height="160" fill="#faf8f5"/>
  <path d="M-66.88,-20.00 L-64.46,-19.79 L-62.05,-19.58 L-59.64,-19.38 L-57.22,-19.17 L-54.81,-18.96 L-52.40,-18.75 L-49.98,-18.54 L-47.57,-18.33 L-45.16,-18.13 L-42.75,-17.92 L-40.33,-17.71 L-37.92,-17.50 L-35.51,-17.29 L-33.09,-17.08 L-30.68,-16.88 L-28.27,-16.67 L-25.86,-16.46 L-23.44,-16.25 L-21.03,-16.04 L-18.62,-15.83 L-16.20,-15.63 L-13.79,-15.42 L-11.38,-15.21 L-8.97,-15.00 L-6.55,-14.79 L-4.14,-14.58 L-1.73,-14.38 L0.69,-14.17 L3.10,-13.96 L5.51,-13.75 L7.92,-13.54 L10.34,-13.33 L12.75,-13.13 L15.16,-12.92 L17.58,-12.71 L19.99,-12.50 L22.40,-12.29 L24.82,-12.08 L27.23,-11.88 L29.64,-11.67 L32.05,-11.46 L34.47,-11.25 L36.88,-11.04 L39.29,-10.83 L41.71,-10.63 L44.12,-10.42 L46.53,-10.21 L48.94,-10.00 L51.36,-9.79 L53.77,-9.58 L56.18,-9.38 L58.60,-9.17 L61.01,-8.96 L63.42,-8.75 L65.83,-8.54 L68.25,-8.33 L70.66,-8.13 L73.07,-7.92 L75.49,-7.71 L77.90,-7.50 L80.31,-7.29 L82.72,-7.08 L85.14,-6.88 L87.55,-6.67 L89.96,-6.46 L92.38,-6.25 L94.79,-6.04 L97.20,-5.83 L99.61,-5.63 L102.03,-5.42 L104.44,-5.21 L106.85,-5.00 L109.27,-4.79 L111.68,-4.58 L114.09,-4.38 L116.51,-4.17 L118.92,-3.96 L121.33,-3.75 L123.74,-3.54 L126.16,-3.33 L128.57,-3.13 L130.98,-2.92 L133.40,-2.71 L135.81,-2.50 L138.22,-2.29 L140.63,-2.08 L143.05,-1.88 L145.46,-1.67 L147.87,-1.46 L150.29,-1.25 L152.70,-1.04 L155.11,-0.83 L157.52,-0.63 L159.94,-0.42 L162.35,-0.21 L164.76,0.00 L174.87,26.13 L184.36,52.25 L192.99,78.38 L200.55,104.50 L206.81,130.63 L211.56,156.75 L214.57,182.88 L215.63,209.00 L212.28,260.19 L203.40,311.38 L190.69,362.56 L175.88,413.75 L160.69,464.94 L146.83,516.13 L136.03,567.31 L130.00,618.50 L126.88,672.44 L124.02,726.38 L121.46,780.31 L119.26,834.25 L117.47,888.19 L116.13,942.13 L115.29,996.06 L115.00,1050.00 L105.42,1051.60 L95.83,1053.06 L86.25,1054.38 L76.67,1055.56 L67.08,1056.60 L57.50,1057.50 L47.92,1058.26 L38.33,1058.89 L28.75,1059.38 L19.17,1059.72 L9.58,1059.93 L0.00,1060.00 L-9.58,1059.93 L-19.17,1059.72 L-28.75,1059.38 L-38.33,1058.89 L-47.92,1058.26 L-57.50,1057.50 L-67.08,1056.60 L-76.67,1055.56 L-86.25,1054.38 L-95.83,1053.06 L-105.42,1051.60 L-115.00,1050.00 L-130.00,618.50 L-130.33,604.56 L-130.84,590.65 L-131.51,576.78 L-132.36,562.92 L-133.38,549.10 L-134.57,535.31 L-135.93,521.55 L-137.46,507.81 L-139.16,494.11 L-141.03,480.43 L-143.08,466.78 L-145.29,453.16 L-147.68,439.58 L-150.24,426.01 L-152.97,412.48 L-155.87,398.98 L-158.94,385.51 L-162.19,372.06 L-165.60,358.65 L-169.19,345.26 L-172.94,331.90 L-176.87,318.57 L-180.97,305.27 L-185.24,292.00 L-185.24,287.00 L-163.60,287.00 L-158.93,287.00 L-154.50,286.98 L-150.31,286.95 L-146.33,286.89 L-142.57,286.80 L-139.02,286.67 L-135.68,286.48 L-132.53,286.25 L-129.56,285.94 L-126.78,285.57 L-124.18,285.12 L-121.74,284.58 L-119.46,283.94 L-117.34,283.21 L-115.37,282.36 L-113.53,281.40 L-111.83,280.31 L-110.25,279.09 L-108.79,277.73 L-107.44,276.23 L-106.20,274.57 L-105.06,272.74 L-104.00,270.75 L-103.04,268.58 L-102.14,266.22 L-101.32,263.67 L-100.56,260.92 L-99.86,257.97 L-99.21,254.79 L-98.60,251.40 L-98.02,247.77 L-97.48,243.91 L-96.95,239.80 L-96.44,235.43 L-95.93,230.81 L-95.43,225.92 L-94.92,220.75 L-94.40,215.29 L-93.85,209.55 L-93.28,203.51 L-92.67,197.16 L-92.02,190.50 L-91.33,183.51 L-90.58,176.20 L-89.76,168.55 L-88.88,160.55 L-87.92,152.21 L-86.88,143.50 L-66.88,-20.00" fill="none" stroke="#1a5fb4" stroke-width="1.2"/><path d="M-80.01,-36.19 L-63.17,-34.74 L-60.76,-34.53 L-58.35,-34.32 L-55.93,-34.11 L-53.52,-33.90 L-51.11,-33.69 L-48.69,-33.49 L-46.28,-33.28 L-43.87,-33.07 L-41.46,-32.86 L-39.04,-32.65 L-36.63,-32.44 L-34.22,-32.24 L-31.80,-32.03 L-29.39,-31.82 L-26.98,-31.61 L-24.57,-31.40 L-22.15,-31.19 L-19.74,-30.99 L-17.33,-30.78 L-14.91,-30.57 L-12.50,-30.36 L-10.09,-30.15 L-7.68,-29.94 L-5.26,-29.74 L-2.85,-29.53 L-0.44,-29.32 L1.98,-29.11 L4.39,-28.90 L6.80,-28.69 L9.22,-28.49 L11.63,-28.28 L14.04,-28.07 L16.45,-27.86 L18.87,-27.65 L21.28,-27.44 L23.69,-27.24 L26.11,-27.03 L28.52,-26.82 L30.93,-26.61 L33.34,-26.40 L35.76,-26.19 L38.17,-25.99 L40.58,-25.78 L43.00,-25.57 L45.41,-25.36 L47.82,-25.15 L50.23,-24.94 L52.65,-24.74 L55.06,-24.53 L57.47,-24.32 L59.89,-24.11 L62.30,-23.90 L64.71,-23.69 L67.12,-23.49 L69.54,-23.28 L71.95,-23.07 L74.36,-22.86 L76.78,-22.65 L79.19,-22.44 L81.60,-22.24 L84.01,-22.03 L86.43,-21.82 L88.84,-21.61 L91.25,-21.40 L93.67,-21.19 L96.08,-20.99 L98.49,-20.78 L100.91,-20.57 L103.32,-20.36 L105.73,-20.15 L108.14,-19.94 L110.56,-19.74 L112.97,-19.53 L115.38,-19.32 L117.80,-19.11 L120.21,-18.90 L122.62,-18.69 L125.03,-18.49 L127.45,-18.28 L129.86,-18.07 L132.27,-17.86 L134.69,-17.65 L137.10,-17.44 L139.51,-17.24 L141.92,-17.03 L144.34,-16.82 L146.75,-16.61 L149.16,-16.40 L151.58,-16.19 L153.99,-15.99 L156.40,-15.78 L158.81,-15.57 L161.23,-15.36 L163.64,-15.15 L175.37,-14.14 L188.92,20.86 L198.53,47.34 L207.32,73.94 L215.05,100.67 L221.49,127.53 L226.40,154.55 L229.53,181.71 L230.64,209.19 L227.20,261.96 L218.08,314.47 L205.18,366.45 L190.28,417.97 L175.12,469.03 L161.42,519.63 L150.85,569.74 L144.94,619.81 L141.86,673.27 L139.00,727.13 L136.45,780.97 L134.25,834.80 L132.46,888.62 L131.13,942.43 L130.29,996.22 L129.74,1098.23 L113.29,1100.97 L103.00,1102.54 L92.72,1103.96 L82.42,1105.22 L72.13,1106.34 L61.83,1107.31 L51.53,1108.13 L41.23,1108.81 L30.92,1109.33 L20.62,1109.70 L10.31,1109.93 L-0.00,1110.00 L-10.31,1109.93 L-20.62,1109.70 L-30.92,1109.33 L-41.23,1108.81 L-51.53,1108.13 L-61.83,1107.31 L-72.13,1106.34 L-82.42,1105.22 L-92.72,1103.96 L-103.00,1102.54 L-113.29,1100.97 L-128.32,1098.47 L-144.99,618.94 L-145.33,605.01 L-145.82,591.29 L-146.49,577.60 L-147.33,563.93 L-148.33,550.30 L-149.50,536.69 L-150.84,523.12 L-152.35,509.57 L-154.03,496.05 L-155.88,482.56 L-157.90,469.10 L-160.08,455.67 L-162.44,442.26 L-164.96,428.89 L-167.66,415.54 L-170.52,402.22 L-173.55,388.93 L-176.75,375.67 L-180.11,362.44 L-183.65,349.23 L-187.36,336.05 L-191.23,322.90 L-195.28,309.78 L-200.24,294.35 L-200.24,272.00 L-163.60,272.00 L-158.96,272.00 L-154.59,271.98 L-150.47,271.95 L-146.62,271.90 L-143.04,271.81 L-139.71,271.68 L-136.65,271.52 L-133.86,271.30 L-131.33,271.05 L-129.07,270.74 L-127.09,270.40 L-125.38,270.02 L-123.94,269.62 L-122.75,269.22 L-121.80,268.81 L-121.05,268.42 L-120.46,268.03 L-119.97,267.65 L-119.51,267.22 L-119.06,266.72 L-118.57,266.08 L-118.05,265.25 L-117.49,264.19 L-116.90,262.87 L-116.30,261.27 L-115.69,259.38 L-115.09,257.20 L-114.51,254.72 L-113.94,251.95 L-113.39,248.90 L-112.86,245.55 L-112.34,241.90 L-111.84,237.97 L-111.34,233.75 L-110.85,229.23 L-110.35,224.41 L-109.85,219.29 L-109.33,213.87 L-108.78,208.14 L-108.21,202.09 L-107.60,195.72 L-106.95,189.03 L-106.25,182.00 L-105.49,174.64 L-104.67,166.93 L-103.78,158.87 L-102.82,150.46 L-101.77,141.70" fill="none" stroke="#c64600" stroke-width="0.9" stroke-dasharray="4 2"/><circle cx="-163.59937499999998" cy="287" r="1.8" fill="#2ec27e"/><text x="-160.59937499999998" y="284" font-size="8" fill="#2ec27e">K</text><circle cx="-185.23958333333331" cy="287" r="1.8" fill="#1c71d8"/><text x="-182.23958333333331" y="284" font-size="8" fill="#1c71d8">p23</text><circle cx="-185.23958333333331" cy="292" r="1.8" fill="#e66100"/><text x="-182.23958333333331" y="289" font-size="8" fill="#e66100">p24</text>
  <text x="-261.2395833333333" y="221.5" font-size="9" fill="#333">back crotch corner — blue=net orange=cut SA</text>
</svg>